{
    "asset" : {
        "extensions" : {
            "ASOBO_normal_map_convention" : {
                "tangent_space_convention" : "DirectX"
            }
        },
        "generator" : "Khronos glTF Blender I/O v3.3.36 and Asobo Studio MSFS Blender I/O v1.3.2",
        "version" : "2.0"
    },
    "extensionsUsed" : [
        "ASOBO_normal_map_convention",
        "ASOBO_unique_id",
        "ASOBO_macro_light"
    ],
    "scene" : 0,
    "scenes" : [
        {
            "name" : "Scene",
            "nodes" : [
                0,
                1
            ]
        }
    ],
    "nodes" : [
        {
            "extensions" : {
                "ASOBO_unique_id" : {
                    "id" : "Torus"
                }
            },
            "mesh" : 0,
            "name" : "Torus",
            "rotation" : [
                0.7071068286895752,
                0,
                0,
                0.7071068286895752
            ],
            "scale" : [
                1.2502434253692627,
                1,
                1
            ]
        },
        {
            "extensions" : {
                "ASOBO_unique_id" : {
                    "id" : "Point"
                },
                "ASOBO_macro_light" : {
                    "color" : [
                        1,
                        0.9001200199127197,
                        0.5753293037414551
                    ],
                    "intensity" : 10,
                    "cone_angle" : 360,
                    "has_symmetry" : true,
                    "flash_frequency" : 0,
                    "flash_duration" : 0,
                    "flash_phase" : 0,
                    "rotation_speed" : 0,
                    "day_night_cycle" : true
                }
            },
            "name" : "Point",
            "rotation" : [
                -0.7071067690849304,
                0,
                0,
                -0.70710688829422
            ],
            "translation" : [
                0,
                3.855891704559326,
                -4.489258766174316
            ]
        }
    ],
    "materials" : [
        {
            "emissiveFactor" : [
                0,
                0,
                0
            ],
            "extras" : {},
            "name" : "lojw_tunnel",
            "pbrMetallicRoughness" : {
                "baseColorFactor" : [
                    0.3842766284942627,
                    0.4109378457069397,
                    0.3990051746368408,
                    1
                ]
            }
        }
    ],
    "meshes" : [
        {
            "name" : "Torus",
            "primitives" : [
                {
                    "attributes" : {
                        "POSITION" : 0,
                        "NORMAL" : 1,
                        "TEXCOORD_0" : 2
                    },
                    "indices" : 3,
                    "material" : 0
                }
            ]
        }
    ],
    "accessors" : [
        {
            "bufferView" : 0,
            "componentType" : 5126,
            "count" : 224,
            "max" : [
                5.980000019073486,
                0.5,
                8.742278509998869e-07
            ],
            "min" : [
                -5.980000019073486,
                -21,
                -5.980000019073486
            ],
            "type" : "VEC3"
        },
        {
            "bufferView" : 1,
            "componentType" : 5126,
            "count" : 224,
            "type" : "VEC3"
        },
        {
            "bufferView" : 2,
            "componentType" : 5126,
            "count" : 224,
            "type" : "VEC2"
        },
        {
            "bufferView" : 3,
            "componentType" : 5123,
            "count" : 366,
            "type" : "SCALAR"
        }
    ],
    "bufferViews" : [
        {
            "buffer" : 0,
            "byteLength" : 2688,
            "byteOffset" : 0,
            "target" : 34962
        },
        {
            "buffer" : 0,
            "byteLength" : 2688,
            "byteOffset" : 2688,
            "target" : 34962
        },
        {
            "buffer" : 0,
            "byteLength" : 1792,
            "byteOffset" : 5376,
            "target" : 34962
        },
        {
            "buffer" : 0,
            "byteLength" : 732,
            "byteOffset" : 7168,
            "target" : 34963
        }
    ],
    "buffers" : [
        {
            "byteLength" : 7900,
            "uri" : "Tunnel_LOD0.bin"
        }
    ]
}
